<svg xmlns="http://www.w3.org/2000/svg" viewBox="0 0 522.03 757.67"><defs><style>.cls-1{fill:none;stroke:#231815;stroke-miterlimit:10;}</style></defs><g id="레이어_2" data-name="레이어 2"><g id="레이어_1-2" data-name="레이어 1"><path class="cls-1" d="M172.73.46c-19.47,8-130.49,54.22-124,86,6,29.26,110.05,39.27,118,20,5.3-12.86-34.89-32.39-29-52,5.57-18.57,49.87-28.5,63-14,13.9,15.36-16,48.29,0,71,9.29,13.16,31.37,19.13,46,11,22.39-12.43,19.81-53.69,10-58-7.88-3.45-27.79,13.69-27,29,1.05,20.66,39.71,37.31,57,27,15.48-9.23,3.24-33.77,20-60,14.95-23.4,45.93-37.11,72-35,53.93,4.37,94.68,77.1,78,129-9.94,30.91-43.48,64.5-71,56-28.4-8.76-42-59.74-27-77,14.29-16.41,50.65,2.12,58-11,8-14.28-24.75-54.7-36-50-14.39,6-4.83,90.43,23,98,32.37,8.81,71-91.43,98-83,21.15,6.62,31.57,79.09-1,126-31.17,44.89-89.55,48.93-134,52-48.26,3.34-67.72-9.29-73-13-22.26-15.6-31.72-40.25-35-51-10.49-34.31,4.18-50.5-7-63-19.13-21.37-91.94-7.38-100,26-5.84,24.17,23.37,53.94,51,66,64.19,28,152.14-25.45,149-39-2.69-11.55-76.27-14.08-116.12,20.24a153.19,153.19,0,0,0-17.88,18.76c-20.94,26.69-17,42.41-34,60-3.43,3.54-21.71,22.41-40,19-26.69-5-37.4-54.38-41-71-13.44-62,8-92.71-7-103-20.35-14-90.69,21.44-95,73-1.46,17.43,3.85,46,23,55,51.88,24.41,165.94-113.37,176-104,6,5.62-41.78,48.79-31,92,5.93,23.8,27,37.14,48,50,48.17,29.54,141.73,62.22,189,21,35-30.53,25.85-85.23,35-85,9.92.26,32.63,65,5,116-30.1,55.55-109.62,75.79-154,56-6.6-2.94-14.43-7.93-30.09-17.91-40.2-25.63-43.4-34.6-62.91-42.09-17.38-6.66-32.83-5.73-63.73-3.87-39,2.35-56.55,11.58-78.63,0-11.66-6.11-13.72-12.32-20.43-11.23C19.48,337,6.38,378.59,15.51,413c5.85,22,19.37,35.77,27.58,43.92,30,29.77,77.85,47.45,124.59,37.79,34.36-7.11,68.13-29,65.37-39.83-4.45-17.47-100.7,4.82-112.34-24.51-4.58-11.52,5.07-28,16.34-36.77,51.24-39.79,197.91,32.93,201.19,97,.77,15.05-6.45,28,2,37.79,11.89,13.69,45.5,10.74,66.38-5.11,26.08-19.79,30.75-58.54,32.68-74.55,3.3-27.3-1.9-44.58,9.2-52.09,11.94-8.08,30.13,3.71,32.68-1,2.64-4.9-12.88-25.12-31.66-26.55-26.63-2-50.53,34.45-59.24,61.28-3.73,11.49-14.54,44.79,2.05,66.38,16.37,21.31,42.44,9.06,66.38,33.7,10.61,10.93,23.15,31.51,17.36,48C467.05,604.25,417,609.11,385.22,605c-26.68-3.45-45.52-13.89-78.64-32.68-53.8-30.5-51.46-42.11-77.62-48-46.26-10.4-89.32,17.88-110.3,31.66-15.75,10.35-34.19,22.8-45.95,47-3,6.19-12.71,26.73-10.22,52.09,1.27,12.87,5.74,27.69,8.17,35.74,4.74,15.68,7.63,20,8.17,30.64.84,16.42-5.33,20.74-2,26.55,7.45,13.15,52.14,14.22,72.51-10.21,18.57-22.26,8.85-56,8.17-58.21-6.72-22.16-20.95-26.94-18.38-39.83,3.27-16.42,29.47-24.46,42.89-26.56,3.59-.55,40.61-5.82,58.22,16.35,10.43,13.14,7.78,35.83,2,80.68-2.38,18.59-5.14,33.77-7.15,43.91"/></g></g></svg>