<svg xmlns="http://www.w3.org/2000/svg" viewBox="0 0 558.78 806.86"><defs><style>.cls-1{fill:none;stroke:#231815;stroke-miterlimit:10;}</style></defs><g id="레이어_2" data-name="레이어 2"><g id="레이어_1-2" data-name="레이어 1"><path class="cls-1" d="M244.81,0c-12.45,146.46,1.92,197.66,25.28,205.28,33.76,11,75.9-72.44,118.47-59.24,31.42,9.75,49.64,68,35.74,112.35-17.6,56.16-87.38,92.15-130.72,76.59C212,305.73,240.79,99.83,198.6,95c-28.45-3.24-70.82,87.06-73.53,173.62-1.08,34.44-3.94,125.94,56.17,169.53,70.79,51.33,193.7,10.67,254.3-62.3,91.38-110,42.77-295.6-10.22-309.44-37.74-9.87-82.68,66.1-118.47,48-14.2-7.19-24.93-28.17-23.48-47,1.15-15.11,9.9-25.54,14.29-30.64,30.61-35.53,86.38-34,97-33.7,50.84,1.39,98,29.22,123.58,59.23C600.05,158.18,553,387.85,409,487.19c-76,52.44-199.87,82.93-265.53,30.64S101.88,355.42,70.94,351.36C39.4,347.22-22.91,456.78,9.66,507.62c33.64,52.5,152.78,17.92,184.85,83.74a74.45,74.45,0,0,1,7.15,27.58c3.43,59.47-69.54,93.44-58.21,123.57,6.86,18.23,37.37,15.93,48,44.94a52.28,52.28,0,0,1,3.06,19.4"/></g></g></svg>